<?xml version="1.0" encoding="utf-8"?>
<!-- Generator: Adobe Illustrator 16.0.0, SVG Export Plug-In . SVG Version: 6.00 Build 0)  -->
<!DOCTYPE svg PUBLIC "-//W3C//DTD SVG 1.1//EN" "http://www.w3.org/Graphics/SVG/1.1/DTD/svg11.dtd">
<svg version="1.1" id="Layer_1" xmlns="http://www.w3.org/2000/svg" xmlns:xlink="http://www.w3.org/1999/xlink" x="0px" y="0px"
	 width="242px" height="53.5px" viewBox="0 0 242 53.5" enable-background="new 0 0 242 53.5" xml:space="preserve">
<g>
	<g>
		<path fill="#FE6379" d="M24.502,6.75c0.636,0,1.27,0,1.901,0c0.635,0.064,1.28,0.057,1.92,0.12
			c1.255,0.128,2.45,0.509,3.624,0.943c2.104,0.785,4.015,1.931,5.686,3.426c3.231,2.873,5.32,6.421,6.136,10.688
			c0.104,0.547,0.089,1.109,0.135,1.667c-0.059,0.124-0.141,0.057-0.213,0.021c-0.115-0.067-0.196-0.177-0.292-0.268
			c-2.418-2.421-4.84-4.848-7.268-7.271c-0.192-0.188-0.378-0.379-0.579-0.559c-0.062-0.087-0.148-0.162-0.218-0.239
			c-0.382-0.394-0.382-0.395-0.85-0.085c-0.079,0.054-0.164,0.099-0.269,0.09c-0.203-0.049-0.323-0.206-0.467-0.342
			c-0.892-0.888-1.777-1.787-2.673-2.675c-0.071-0.035-0.141-0.045-0.208-0.073c-0.636-0.266-0.636-0.266-0.89,0.364
			c-0.178,0.451-0.375,0.892-0.55,1.34c-0.062,0.145-0.117,0.298-0.293,0.344c-0.207,0-0.322-0.15-0.446-0.277
			c-0.92-0.931-1.877-1.825-2.755-2.793c-0.072-0.077-0.161-0.106-0.256-0.128c-0.046-0.009,0.019-0.002-0.035-0.009
			c-0.772-0.103-0.832-0.053-0.832,0.719c0,0.64-0.002,1.28,0,1.92c0,0.168-0.01,0.341,0.104,0.485
			c0.051,0.133,0.115,0.25,0.227,0.354c0.425,0.414,0.854,0.833,1.26,1.267c0.122,0.131,0.318,0.281,0.08,0.487
			c-0.41,0.059-0.819-0.02-1.227-0.022c-0.183,0.003-0.363,0.034-0.542-0.01c-0.197-0.114-0.374-0.262-0.533-0.425
			c-1.095-1.085-2.181-2.176-3.275-3.268c-0.184-0.185-0.278-0.463-0.567-0.539c-0.249-0.08-0.444,0.068-0.648,0.16
			c-0.149,0.064-0.129,0.188-0.078,0.307c0.379,0.905,0.713,1.827,1.16,2.702c0.077,0.247,0.305,0.366,0.462,0.55
			c0.279,0.318,0.629,0.566,0.887,0.909c-0.015,0.157-0.142,0.212-0.266,0.265c-0.802,0.354-1.576,0.754-2.265,1.305
			c-0.114,0.091-0.244,0.161-0.4,0.149c-0.519-0.356-0.903-0.85-1.339-1.291c-0.685-0.62-1.307-1.3-1.97-1.941
			c-0.286-0.277-0.322-0.267-0.608,0.02c-0.184,0.179-0.16,0.309,0.009,0.482c0.664,0.674,1.355,1.318,1.996,2.017
			c0.443,0.441,0.949,0.82,1.285,1.359c0,0.177-0.121,0.285-0.227,0.403c-1.265,1.437-2.001,3.105-2.233,5.004
			c-0.259,2.147,0.245,4.121,1.35,5.951c0.238,0.398,0.521,0.768,0.824,1.111c0.095,0.107,0.204,0.212,0.219,0.371
			c-0.009,0.155-0.093,0.275-0.199,0.377c-0.358,0.34-0.668,0.731-1.074,1.028c-0.072,0.021-0.157,0.021-0.207-0.032
			c-0.258-0.259-0.43-0.111-0.624,0.1c-0.356,0.371-0.728,0.739-1.1,1.102c-0.183,0.176-0.222,0.324-0.011,0.503
			c0.158,0.129,0.287,0.295,0.449,0.422c1.413,1.462,2.864,2.876,4.3,4.316c1.428,1.427,2.845,2.867,4.289,4.271
			c0.065,0.071,0.163,0.128,0.114,0.246c-0.122,0-0.242,0-0.367,0c-0.641-0.063-1.28-0.058-1.917-0.118
			c-1.169-0.128-2.287-0.46-3.382-0.865c-1.603-0.594-3.114-1.369-4.498-2.38c-2.147-1.568-3.93-3.464-5.285-5.755
			c-1.107-1.871-1.879-3.867-2.271-6.003c-0.115-0.61-0.113-1.228-0.152-1.846c-0.009-0.095,0.03-0.195-0.037-0.281
			c0-0.979,0-1.949,0-2.925c0.074-0.536,0.067-1.083,0.121-1.626c0.121-1.261,0.507-2.451,0.943-3.627
			c0.786-2.107,1.936-4.01,3.425-5.692c1.558-1.762,3.365-3.224,5.468-4.309c1.634-0.843,3.334-1.475,5.146-1.801
			c0.716-0.129,1.448-0.152,2.178-0.156C24.036,6.766,24.271,6.831,24.502,6.75z"/>
		<path fill="#FE415B" d="M35.618,15.451c0.16,0.014,0.247,0.143,0.349,0.244c2.528,2.525,5.056,5.055,7.584,7.584
			c0.111,0.112,0.206,0.239,0.311,0.356c0.11,0.104-0.013,0.259,0.083,0.364c0,0.949,0,1.899,0,2.85
			c-0.066,0.592-0.061,1.185-0.122,1.776c-0.113,1.069-0.418,2.096-0.765,3.107c-0.545,1.559-1.301,3.014-2.234,4.371
			c-1.103,1.608-2.419,3.012-3.945,4.216c-1.651,1.299-3.463,2.296-5.439,2.99c-1.492,0.523-3.019,0.841-4.604,0.825
			c-0.07,0-0.149-0.022-0.209,0.036c-0.731,0-1.461,0-2.194,0c-0.187-0.094-0.341-0.226-0.487-0.372
			c-2.663-2.664-5.325-5.328-7.985-7.996c-0.118-0.117-0.274-0.214-0.297-0.396c-0.094-0.209,0.066-0.318,0.177-0.435
			c0.318-0.337,0.638-0.665,0.976-0.972c0.237-0.222,0.429-0.444,0.379-0.792c0.308-0.538,0.809-0.888,1.231-1.313
			c0.271-0.009,0.439,0.18,0.614,0.341c1.466,1.361,3.205,2.112,5.177,2.365c0.338,0.044,0.676,0.044,1.015,0.084
			c1.178-0.021,2.321-0.221,3.415-0.669c1.905-0.776,3.408-2.043,4.477-3.807c1.031-1.695,1.452-3.555,1.29-5.517
			c-0.157-1.971-0.9-3.715-2.199-5.222c-1.403-1.638-3.175-2.647-5.285-3.069c-0.152-0.029-0.312-0.058-0.376-0.237
			c-0.511-0.516-1.021-1.026-1.527-1.552c-0.083-0.084-0.243-0.146-0.153-0.322c0.064-0.146,0.198-0.154,0.333-0.173
			c0.406-0.057,0.438-0.096,0.445-0.503c0.011-0.737-0.007-1.477,0.008-2.211c0.003-0.177-0.033-0.375,0.16-0.488
			c1.131,1.07,2.224,2.162,3.288,3.29c0.086,0.074,0.078,0.168,0.064,0.269c-0.036,0.328,0.032,0.402,0.388,0.5
			c0.286,0.082,0.317-0.137,0.387-0.31c0.287-0.691,0.584-1.38,0.865-2.073c0.073-0.176,0.124-0.378,0.348-0.432
			c1.051,1.003,2.084,2.02,3.071,3.085c0.057,0.202-0.09,0.313-0.203,0.433c-0.341,0.349-0.678,0.694-1.032,1.023
			c-0.195,0.19-0.19,0.316,0.011,0.498c0.189,0.175,0.328,0.297,0.56,0.047c0.52-0.545,1.059-1.07,1.593-1.596
			C35.285,15.532,35.395,15.357,35.618,15.451z"/>
		<path fill="#FEA5B1" d="M23.712,6.171c0.009-0.022,0.011-0.043,0.009-0.066c0.253,0,0.502,0,0.755,0
			C24.231,6.229,23.969,6.18,23.712,6.171z"/>
		<path fill="#D5E8F7" d="M26.552,16.165c2.145,0.349,3.995,1.269,5.491,2.856c1.916,2.047,2.763,4.498,2.525,7.278
			c-0.352,4.134-3.376,7.484-7.454,8.341c-0.616,0.136-1.246,0.223-1.881,0.166c-0.163-0.112-0.16-0.287-0.163-0.463
			c-0.006-0.599-0.002-1.204-0.002-1.807c0-0.353,0.015-0.699-0.091-1.042c0.026-0.097,0.101-0.128,0.191-0.152
			c0.75-0.068,1.492-0.145,2.205-0.438c1.999-0.829,3.229-2.312,3.612-4.424c0.58-3.188-1.512-6.197-4.72-6.786
			c-0.361-0.064-0.724-0.052-1.084-0.103c-0.115,0.002-0.213-0.035-0.264-0.146c0.224-0.505,0.139-1.039,0.152-1.565
			c0.006-0.447-0.004-0.897,0.005-1.343c0.001-0.159,0.01-0.317,0.16-0.421C25.673,16.072,26.113,16.126,26.552,16.165z"/>
		<path fill="#E8F2FA" d="M25.233,16.118c0,0.96-0.009,1.923,0.005,2.883c0.005,0.244-0.058,0.395-0.3,0.454
			c-0.131,0.236-0.384,0.194-0.584,0.225c-2.632,0.421-4.682,2.517-4.94,5.177c-0.302,3.124,1.801,5.862,4.9,6.385
			c0.234,0.033,0.527-0.033,0.698,0.227c0.214,0.072,0.225,0.247,0.222,0.441c-0.002,0.967,0,1.93,0,2.897
			c-2.447,0.005-4.552-0.854-6.361-2.485c-0.154-0.137-0.299-0.281-0.45-0.422c-1.156-1.28-1.982-2.733-2.322-4.432
			c-0.643-3.184,0.126-5.985,2.305-8.401c0.034-0.037,0.059-0.075,0.088-0.115c0.052-0.319,0.314-0.567,0.679-0.638
			c0.885-0.725,1.864-1.279,2.927-1.691c0.049-0.162,0.188-0.206,0.326-0.256c0.595-0.207,1.211-0.322,1.842-0.371
			c0.145-0.01,0.258,0.043,0.377,0.105C24.843,16.105,25.037,16.11,25.233,16.118z"/>
		<path fill="#FE415B" d="M24.645,16.101c-0.868,0.091-1.717,0.259-2.544,0.521c-0.141-0.002-0.25-0.06-0.352-0.162
			c-0.311-0.314-0.626-0.627-0.939-0.943c-0.075-0.073-0.179-0.142-0.106-0.27c0.041-0.215,0.225-0.285,0.39-0.344
			c0.245-0.092,0.274-0.227,0.178-0.447c-0.293-0.701-0.59-1.4-0.877-2.109c-0.059-0.159-0.148-0.317-0.008-0.477
			c0.078,0.055,0.165,0.104,0.229,0.167c1.308,1.307,2.615,2.614,3.921,3.922C24.578,15.999,24.608,16.051,24.645,16.101z"/>
		<path fill="#E1EDF8" d="M25.818,10.916c-0.002,0.993-0.023,1.982-0.005,2.979c0.005,0.315-0.068,0.44-0.4,0.394
			c-0.175-0.028-0.362,0-0.541,0.003c-0.191-0.008-0.193-0.141-0.193-0.282c0-0.956,0.001-1.912-0.003-2.868
			c-0.003-0.214,0.07-0.314,0.294-0.291C25.253,10.885,25.548,10.764,25.818,10.916z"/>
		<path fill="#E8F2FA" d="M20.386,11.87c0.361,0.886,0.712,1.773,1.089,2.65c0.115,0.27,0.115,0.413-0.202,0.492
			c-0.196,0.048-0.379,0.153-0.57,0.234c-0.165-0.002-0.169-0.15-0.217-0.257c-0.361-0.859-0.713-1.722-1.083-2.574
			c-0.101-0.229-0.044-0.321,0.177-0.391c0.183-0.057,0.359-0.146,0.537-0.22C20.224,11.757,20.319,11.741,20.386,11.87z"/>
		<path fill="#D5E8F7" d="M31.158,12.16c-0.39,0.95-0.793,1.896-1.17,2.853c-0.093,0.234-0.198,0.271-0.4,0.146
			c-0.005-0.009-0.02-0.009-0.032-0.016c-0.668-0.273-0.668-0.273-0.449-0.937c0.315-0.732,0.631-1.464,0.925-2.201
			c0.096-0.216,0.181-0.278,0.398-0.17C30.667,11.957,30.911,12.052,31.158,12.16z"/>
		<path fill="#E8F2FA" d="M17.191,17.712c-0.38-0.248-0.651-0.613-0.974-0.92c-0.299-0.281-0.591-0.576-0.875-0.876
			c-0.163-0.171-0.49-0.325-0.449-0.527c0.057-0.279,0.387-0.443,0.593-0.664c0.119-0.128,0.19-0.013,0.266,0.063
			c0.728,0.729,1.454,1.462,2.175,2.194C17.888,17.295,17.565,17.615,17.191,17.712z"/>
		<path fill="#D5E8F7" d="M35.618,15.451c-0.702,0.694-1.408,1.385-2.1,2.087c-0.149,0.152-0.232,0.179-0.396,0.01
			c-0.588-0.583-0.593-0.576-0.019-1.157c0.381-0.378,0.751-0.764,1.126-1.144c0.032-0.021,0.059-0.043,0.091-0.064
			c0.201-0.156,0.376-0.556,0.583-0.474C35.199,14.832,35.46,15.119,35.618,15.451z"/>
		<path fill="#E8F2FA" d="M17.191,33.211c0.316,0.245,0.258,0.428-0.023,0.689c-0.527,0.476-1.012,1.004-1.51,1.507
			c-0.349-0.107-0.511-0.418-0.753-0.645c-0.126-0.122,0.033-0.198,0.102-0.266c0.491-0.496,1-0.988,1.485-1.498
			c0.194-0.202,0.329-0.251,0.497,0.014C17.038,33.091,17.122,33.149,17.191,33.211z"/>
		<path fill="#FE415B" d="M17.191,17.712c0.246-0.245,0.491-0.486,0.735-0.73c0.437,0.425,0.936,0.789,1.247,1.332
			c-0.228,0.211-0.452,0.424-0.678,0.638C17.973,18.632,17.602,18.149,17.191,17.712z"/>
		<path fill="#DEEBF7" d="M24.659,37.935c0-0.351,0.012-0.703-0.001-1.056c-0.013-0.272,0.175-0.297,0.324-0.229
			c0.271,0.111,0.757-0.309,0.813,0.234c0.067,0.703,0.014,1.41,0.021,2.112c0.002,0.181-0.052,0.28-0.251,0.266
			c-0.008,0-0.02,0-0.034,0c-0.872,0.045-0.872,0.045-0.872-0.816C24.659,38.278,24.659,38.104,24.659,37.935z"/>
		<path fill="#D5E8F7" d="M34.952,35.471c-0.166-0.063-0.208-0.149-0.263-0.206c-0.517-0.515-1.029-1.032-1.552-1.544
			c-0.126-0.123-0.16-0.193-0.015-0.346c0.592-0.631,0.587-0.636,1.205-0.015c0.382,0.385,0.771,0.776,1.165,1.155
			c0.115,0.12,0.14,0.192,0.01,0.325C35.305,35.036,35.133,35.258,34.952,35.471z"/>
		<path fill="#E8F2FA" d="M19.333,37.854c0.019-0.046,0.034-0.087,0.054-0.137c0.271-0.649,0.547-1.298,0.805-1.954
			c0.083-0.205,0.163-0.245,0.375-0.148c0.741,0.336,0.744,0.325,0.426,1.094c-0.175,0.423-0.364,0.853-0.524,1.285
			c-0.1,0.271-0.208,0.413-0.51,0.22c-0.15-0.101-0.336-0.141-0.501-0.215C19.394,37.978,19.303,37.959,19.333,37.854z"/>
		<path fill="#D5E8F7" d="M30.072,35.553c0.125-0.029,0.14,0.074,0.166,0.152c0.288,0.686,0.572,1.368,0.853,2.05
			c0.009,0.021,0.029,0.053,0.024,0.07c-0.126,0.35-0.507,0.278-0.744,0.441c-0.124,0.08-0.223,0.088-0.287-0.079
			C29.8,37.49,29.507,36.799,29.22,36.1c-0.025-0.063-0.076-0.144,0.02-0.188C29.512,35.789,29.8,35.67,30.072,35.553z"/>
		<path fill="#5F5ACD" d="M25.236,19.474c2.185-0.142,4.501,1.339,5.474,3.497c1.67,3.706-0.704,7.949-4.746,8.47
			c-0.244,0.029-0.483,0.004-0.728,0.009c-0.089-0.073-0.152-0.156-0.152-0.275c-0.003-0.828-0.075-1.66,0.041-2.486
			c0.083-0.203,0.272-0.219,0.45-0.253c0.985-0.187,1.787-0.646,2.268-1.555c0.963-1.806-0.062-3.94-2.069-4.354
			c-0.224-0.044-0.505-0.007-0.642-0.278c-0.128-0.612-0.034-1.229-0.06-1.845c-0.007-0.182,0-0.365,0.003-0.546
			C25.078,19.708,25.105,19.568,25.236,19.474z"/>
		<path fill="#7C82E6" d="M25.23,28.612c0.002,0.942,0.002,1.889,0.005,2.837c-0.075,0.005-0.15,0.01-0.222,0.019
			c-3.054-0.193-5.314-2.277-5.753-5.301c-0.443-3.056,1.884-6.17,4.953-6.624c0.241-0.037,0.485-0.056,0.725-0.088
			c0.099,0.008,0.2,0.015,0.298,0.019c-0.003,0.947-0.003,1.892-0.005,2.838c-0.009,0.02-0.015,0.031-0.023,0.05
			c-0.445,0.229-0.958,0.242-1.404,0.462c-0.157,0.014-0.271-0.08-0.397-0.155c-0.291-0.18-0.562-0.156-0.803,0.06
			c-0.271,0.236-0.313,0.468-0.15,0.815c0.059,0.129,0.16,0.248,0.15,0.404c-0.007,0.149-0.077,0.28-0.13,0.415
			c-0.737,1.829,0.5,3.729,2.263,4.027c0.163,0.03,0.338,0.035,0.472,0.172C25.215,28.576,25.224,28.594,25.23,28.612z"/>
		<path fill="#002659" d="M25.23,22.312c1.782,0.066,3.141,1.415,3.145,3.132c0.003,1.739-1.343,3.098-3.145,3.169l0.007-0.019
			c-0.152-0.103-0.165-0.26-0.165-0.424c-0.009-1.803-0.009-3.61,0-5.418c0-0.161,0.013-0.318,0.165-0.421L25.23,22.312z"/>
		<path fill="#00347B" d="M25.238,22.331c0,2.088,0,4.174,0,6.263c-2.214-0.012-3.718-2.204-2.926-4.266
			c0.055-0.147,0.104-0.302,0.222-0.416c0.104-0.104,0.223-0.057,0.341-0.038c0.506,0.083,0.842-0.223,0.827-0.74
			c-0.005-0.131-0.064-0.269,0.047-0.38C24.188,22.408,24.706,22.352,25.238,22.331z"/>
		<path fill="#E8F2FA" d="M23.749,22.754c0.2,0.447,0.16,0.789-0.119,1.066c-0.289,0.29-0.606,0.317-1.097,0.092
			c-0.346-0.374-0.426-0.708-0.257-1.047c0.162-0.33,0.49-0.507,0.87-0.476C23.412,22.409,23.582,22.576,23.749,22.754z"/>
	</g>
	<g>
		<path fill="#00347B" d="M83.915,39.617c0,0.152-0.046,0.287-0.137,0.4c-0.091,0.115-0.244,0.209-0.457,0.285
			c-0.214,0.078-0.503,0.135-0.869,0.172c-0.366,0.039-0.831,0.057-1.394,0.057c-0.58,0-1.052-0.018-1.417-0.057
			c-0.366-0.037-0.659-0.094-0.88-0.172c-0.221-0.076-0.374-0.17-0.457-0.285c-0.084-0.113-0.126-0.248-0.126-0.4v-12.09
			c0-0.686-0.065-1.311-0.194-1.874c-0.13-0.563-0.328-1.048-0.595-1.452c-0.267-0.403-0.602-0.716-1.005-0.937
			c-0.404-0.221-0.888-0.332-1.452-0.332c-0.686,0-1.379,0.268-2.08,0.801c-0.701,0.533-1.462,1.311-2.286,2.331v13.553
			c0,0.152-0.045,0.287-0.137,0.4c-0.091,0.115-0.248,0.209-0.468,0.285c-0.221,0.078-0.514,0.135-0.88,0.172
			c-0.366,0.039-0.823,0.057-1.372,0.057c-0.564,0-1.029-0.018-1.394-0.057c-0.366-0.037-0.66-0.094-0.88-0.172
			c-0.221-0.076-0.377-0.17-0.468-0.285c-0.092-0.113-0.137-0.248-0.137-0.4v-12.09c0-0.686-0.065-1.311-0.194-1.874
			c-0.13-0.563-0.324-1.048-0.583-1.452c-0.259-0.403-0.594-0.716-1.005-0.937c-0.412-0.221-0.892-0.332-1.44-0.332
			c-0.701,0-1.402,0.268-2.103,0.801c-0.701,0.533-1.456,1.311-2.263,2.331v13.553c0,0.152-0.046,0.287-0.137,0.4
			c-0.092,0.115-0.248,0.209-0.469,0.285c-0.221,0.078-0.514,0.135-0.88,0.172c-0.366,0.039-0.831,0.057-1.395,0.057
			s-1.028-0.018-1.394-0.057c-0.366-0.037-0.659-0.094-0.88-0.172c-0.221-0.076-0.377-0.17-0.469-0.285
			c-0.091-0.113-0.137-0.248-0.137-0.4V19.23c0-0.152,0.038-0.286,0.114-0.4s0.213-0.209,0.412-0.285
			c0.198-0.076,0.453-0.134,0.766-0.172c0.312-0.038,0.705-0.057,1.177-0.057c0.487,0,0.891,0.019,1.211,0.057
			c0.32,0.038,0.567,0.096,0.743,0.172s0.301,0.171,0.377,0.285s0.115,0.248,0.115,0.4v2.354c1.127-1.22,2.251-2.134,3.371-2.743
			s2.29-0.914,3.509-0.914c0.838,0,1.592,0.088,2.263,0.263c0.67,0.175,1.269,0.427,1.794,0.754c0.525,0.328,0.979,0.72,1.36,1.178
			c0.381,0.457,0.701,0.968,0.96,1.531c0.609-0.655,1.208-1.219,1.794-1.691c0.586-0.473,1.166-0.857,1.737-1.154
			c0.571-0.298,1.143-0.519,1.714-0.663s1.154-0.217,1.749-0.217c1.356,0,2.499,0.229,3.429,0.686
			c0.929,0.457,1.68,1.078,2.251,1.862c0.571,0.785,0.979,1.703,1.223,2.755c0.244,1.051,0.366,2.164,0.366,3.337V39.617z"/>
		<path fill="#00347B" d="M109.035,39.617c0,0.152-0.046,0.287-0.137,0.4c-0.092,0.115-0.244,0.209-0.457,0.285
			c-0.214,0.078-0.507,0.135-0.88,0.172c-0.374,0.039-0.834,0.057-1.383,0.057c-0.564,0-1.033-0.018-1.406-0.057
			c-0.374-0.037-0.667-0.094-0.88-0.172c-0.214-0.076-0.366-0.17-0.458-0.285c-0.091-0.113-0.137-0.248-0.137-0.4V27.984
			c0-0.99-0.073-1.768-0.217-2.331c-0.145-0.563-0.354-1.048-0.628-1.452c-0.274-0.403-0.629-0.716-1.063-0.937
			c-0.435-0.221-0.941-0.332-1.52-0.332c-0.731,0-1.471,0.268-2.217,0.801s-1.524,1.311-2.331,2.331v13.553
			c0,0.152-0.046,0.287-0.137,0.4c-0.092,0.115-0.248,0.209-0.469,0.285c-0.221,0.078-0.514,0.135-0.88,0.172
			c-0.366,0.039-0.831,0.057-1.395,0.057s-1.028-0.018-1.394-0.057c-0.366-0.037-0.659-0.094-0.88-0.172
			c-0.221-0.076-0.377-0.17-0.469-0.285c-0.091-0.113-0.137-0.248-0.137-0.4V19.23c0-0.152,0.038-0.286,0.114-0.4
			s0.213-0.209,0.412-0.285c0.198-0.076,0.453-0.134,0.766-0.172c0.312-0.038,0.705-0.057,1.177-0.057
			c0.487,0,0.891,0.019,1.211,0.057c0.32,0.038,0.567,0.096,0.743,0.172s0.301,0.171,0.377,0.285s0.115,0.248,0.115,0.4v2.354
			c1.127-1.22,2.274-2.134,3.44-2.743c1.166-0.609,2.38-0.914,3.646-0.914c1.386,0,2.556,0.229,3.508,0.686s1.722,1.078,2.309,1.862
			c0.587,0.785,1.01,1.703,1.269,2.755c0.259,1.051,0.389,2.316,0.389,3.794V39.617z"/>
		<path fill="#00347B" d="M120.875,12.327c0,1.158-0.236,1.958-0.709,2.4c-0.472,0.442-1.349,0.663-2.628,0.663
			c-1.296,0-2.168-0.214-2.617-0.641c-0.45-0.426-0.675-1.195-0.675-2.309c0-1.157,0.232-1.962,0.697-2.411s1.345-0.674,2.641-0.674
			c1.279,0,2.148,0.217,2.605,0.651C120.646,10.441,120.875,11.215,120.875,12.327z M120.44,39.617c0,0.152-0.046,0.287-0.137,0.4
			c-0.092,0.115-0.248,0.209-0.469,0.285c-0.221,0.078-0.515,0.135-0.88,0.172c-0.366,0.039-0.831,0.057-1.395,0.057
			s-1.028-0.018-1.395-0.057c-0.365-0.037-0.659-0.094-0.88-0.172c-0.221-0.076-0.377-0.17-0.468-0.285
			c-0.092-0.113-0.138-0.248-0.138-0.4V19.276c0-0.152,0.046-0.286,0.138-0.4c0.091-0.114,0.247-0.213,0.468-0.297
			s0.515-0.148,0.88-0.194c0.366-0.046,0.831-0.068,1.395-0.068s1.028,0.022,1.395,0.068c0.365,0.046,0.659,0.11,0.88,0.194
			s0.377,0.183,0.469,0.297c0.091,0.114,0.137,0.248,0.137,0.4V39.617z"/>
		<path fill="#FE6379" d="M140.532,33.857c0,1.158-0.218,2.18-0.651,3.063c-0.435,0.885-1.048,1.623-1.84,2.219
			c-0.793,0.594-1.73,1.039-2.812,1.336c-1.082,0.297-2.256,0.445-3.521,0.445c-0.762,0-1.489-0.057-2.183-0.17
			c-0.693-0.115-1.314-0.26-1.863-0.436c-0.548-0.174-1.005-0.354-1.371-0.537c-0.365-0.182-0.633-0.354-0.8-0.514
			c-0.168-0.16-0.297-0.412-0.389-0.754c-0.092-0.344-0.137-0.85-0.137-1.52c0-0.443,0.015-0.797,0.045-1.064
			c0.03-0.266,0.076-0.479,0.138-0.639c0.061-0.16,0.137-0.268,0.229-0.32s0.206-0.08,0.343-0.08c0.168,0,0.415,0.096,0.743,0.285
			c0.327,0.191,0.734,0.4,1.223,0.629c0.487,0.229,1.055,0.441,1.703,0.641c0.647,0.197,1.383,0.297,2.205,0.297
			c0.518,0,0.979-0.053,1.383-0.16s0.755-0.26,1.052-0.457s0.521-0.449,0.674-0.754s0.229-0.656,0.229-1.053
			c0-0.457-0.141-0.848-0.423-1.176s-0.655-0.613-1.119-0.857c-0.466-0.244-0.991-0.472-1.577-0.686
			c-0.587-0.213-1.189-0.449-1.806-0.708c-0.617-0.26-1.22-0.557-1.807-0.892c-0.586-0.335-1.112-0.747-1.577-1.234
			s-0.838-1.074-1.119-1.76c-0.282-0.687-0.423-1.509-0.423-2.469c0-0.976,0.19-1.87,0.571-2.686s0.929-1.513,1.646-2.092
			c0.716-0.579,1.589-1.028,2.617-1.349s2.183-0.479,3.463-0.479c0.64,0,1.261,0.045,1.862,0.137
			c0.603,0.092,1.146,0.206,1.635,0.343c0.487,0.138,0.898,0.286,1.234,0.446c0.335,0.159,0.575,0.297,0.72,0.411
			s0.247,0.229,0.309,0.343c0.061,0.114,0.106,0.251,0.137,0.411c0.031,0.16,0.058,0.358,0.08,0.595
			c0.023,0.236,0.034,0.529,0.034,0.88c0,0.411-0.011,0.747-0.034,1.006c-0.022,0.259-0.061,0.465-0.114,0.617
			s-0.125,0.255-0.217,0.309s-0.198,0.08-0.32,0.08c-0.137,0-0.351-0.08-0.64-0.24c-0.29-0.16-0.651-0.332-1.086-0.515
			s-0.937-0.354-1.509-0.514c-0.571-0.16-1.223-0.24-1.954-0.24c-0.518,0-0.968,0.054-1.349,0.16s-0.693,0.259-0.937,0.457
			c-0.244,0.198-0.427,0.431-0.549,0.697s-0.183,0.552-0.183,0.856c0,0.473,0.145,0.869,0.434,1.188
			c0.29,0.32,0.671,0.603,1.144,0.846c0.472,0.244,1.009,0.473,1.611,0.687c0.602,0.213,1.211,0.445,1.828,0.696
			c0.617,0.252,1.227,0.546,1.829,0.881c0.602,0.335,1.139,0.746,1.611,1.233c0.472,0.488,0.853,1.071,1.143,1.749
			C140.386,32.125,140.532,32.93,140.532,33.857z"/>
		<path fill="#FE6379" d="M160.28,36.373c0,0.396-0.012,0.727-0.034,0.994c-0.023,0.266-0.054,0.49-0.092,0.674
			c-0.038,0.182-0.084,0.332-0.137,0.445c-0.054,0.115-0.172,0.26-0.354,0.434c-0.183,0.176-0.495,0.389-0.938,0.641
			s-0.944,0.477-1.509,0.674c-0.563,0.199-1.177,0.359-1.84,0.48c-0.662,0.121-1.345,0.184-2.045,0.184
			c-1.57,0-2.96-0.244-4.172-0.732c-1.211-0.486-2.229-1.207-3.052-2.16c-0.822-0.951-1.443-2.113-1.862-3.484
			s-0.629-2.94-0.629-4.708c0-2.042,0.255-3.807,0.766-5.292s1.223-2.716,2.138-3.691c0.914-0.975,1.996-1.699,3.245-2.171
			c1.25-0.473,2.621-0.709,4.114-0.709c0.609,0,1.208,0.054,1.795,0.16c0.586,0.106,1.135,0.251,1.646,0.435
			c0.51,0.183,0.967,0.388,1.371,0.617c0.403,0.229,0.689,0.427,0.857,0.594c0.167,0.168,0.285,0.309,0.354,0.423
			c0.068,0.114,0.121,0.263,0.159,0.445c0.038,0.184,0.069,0.408,0.092,0.675s0.034,0.591,0.034,0.972
			c0,0.884-0.076,1.505-0.229,1.862c-0.152,0.358-0.351,0.537-0.594,0.537c-0.26,0-0.534-0.106-0.823-0.319
			c-0.29-0.214-0.633-0.449-1.028-0.709c-0.396-0.259-0.869-0.495-1.417-0.709c-0.549-0.213-1.204-0.319-1.966-0.319
			c-1.494,0-2.637,0.575-3.429,1.726c-0.793,1.15-1.188,2.838-1.188,5.063c0,1.098,0.099,2.065,0.297,2.903s0.491,1.539,0.88,2.102
			c0.389,0.564,0.876,0.986,1.463,1.27c0.587,0.281,1.269,0.422,2.046,0.422c0.792,0,1.475-0.117,2.046-0.354s1.07-0.5,1.497-0.789
			c0.426-0.289,0.784-0.553,1.074-0.789c0.289-0.234,0.533-0.354,0.731-0.354c0.137,0,0.251,0.039,0.343,0.113
			c0.092,0.078,0.163,0.219,0.217,0.424s0.096,0.469,0.126,0.789C160.264,35.457,160.28,35.869,160.28,36.373z"/>
		<path fill="#FE6379" d="M170.634,12.327c0,1.158-0.236,1.958-0.709,2.4c-0.472,0.442-1.349,0.663-2.628,0.663
			c-1.296,0-2.168-0.214-2.617-0.641c-0.45-0.426-0.675-1.195-0.675-2.309c0-1.157,0.232-1.962,0.697-2.411s1.345-0.674,2.641-0.674
			c1.279,0,2.148,0.217,2.605,0.651C170.406,10.441,170.634,11.215,170.634,12.327z M170.2,39.617c0,0.152-0.046,0.287-0.137,0.4
			c-0.092,0.115-0.248,0.209-0.469,0.285c-0.221,0.078-0.515,0.135-0.88,0.172c-0.366,0.039-0.831,0.057-1.395,0.057
			s-1.028-0.018-1.395-0.057c-0.365-0.037-0.659-0.094-0.88-0.172c-0.221-0.076-0.377-0.17-0.468-0.285
			c-0.092-0.113-0.138-0.248-0.138-0.4V19.276c0-0.152,0.046-0.286,0.138-0.4c0.091-0.114,0.247-0.213,0.468-0.297
			s0.515-0.148,0.88-0.194c0.366-0.046,0.831-0.068,1.395-0.068s1.028,0.022,1.395,0.068c0.365,0.046,0.659,0.11,0.88,0.194
			s0.377,0.183,0.469,0.297c0.091,0.114,0.137,0.248,0.137,0.4V39.617z"/>
		<path fill="#FE6379" d="M194.771,28.83c0,0.701-0.156,1.22-0.469,1.555s-0.742,0.503-1.291,0.503H180.6
			c0,0.868,0.103,1.656,0.309,2.364c0.205,0.709,0.533,1.311,0.982,1.807c0.449,0.494,1.028,0.871,1.737,1.131
			s1.558,0.389,2.549,0.389c1.006,0,1.889-0.072,2.651-0.217c0.762-0.145,1.421-0.305,1.977-0.48
			c0.557-0.176,1.018-0.336,1.383-0.48c0.366-0.145,0.663-0.217,0.892-0.217c0.138,0,0.252,0.027,0.343,0.08
			c0.092,0.053,0.168,0.148,0.229,0.285c0.062,0.137,0.104,0.332,0.126,0.584c0.022,0.25,0.034,0.566,0.034,0.947
			c0,0.336-0.008,0.621-0.022,0.857c-0.016,0.236-0.038,0.439-0.068,0.605c-0.031,0.168-0.077,0.309-0.138,0.424
			c-0.061,0.113-0.141,0.225-0.24,0.332c-0.099,0.105-0.369,0.25-0.812,0.434c-0.441,0.182-1.005,0.361-1.691,0.537
			c-0.686,0.174-1.471,0.328-2.354,0.457c-0.884,0.129-1.829,0.193-2.835,0.193c-1.813,0-3.401-0.229-4.766-0.686
			c-1.363-0.457-2.503-1.15-3.417-2.08c-0.914-0.928-1.596-2.102-2.046-3.52c-0.449-1.416-0.674-3.077-0.674-4.981
			c0-1.813,0.236-3.448,0.709-4.903c0.472-1.455,1.157-2.689,2.057-3.703c0.899-1.013,1.992-1.786,3.28-2.319
			c1.287-0.533,2.738-0.8,4.354-0.8c1.706,0,3.165,0.251,4.377,0.754c1.211,0.503,2.205,1.2,2.982,2.092
			c0.777,0.891,1.349,1.946,1.714,3.165c0.366,1.22,0.549,2.545,0.549,3.978V28.83z M189.194,27.185
			c0.046-1.615-0.278-2.884-0.971-3.806c-0.694-0.922-1.765-1.383-3.212-1.383c-0.731,0-1.368,0.137-1.908,0.411
			c-0.541,0.274-0.991,0.645-1.349,1.108c-0.358,0.465-0.633,1.014-0.823,1.646c-0.19,0.633-0.301,1.308-0.331,2.023H189.194z"/>
		<path fill="#FE6379" d="M218.977,39.617c0,0.152-0.046,0.287-0.138,0.4c-0.091,0.115-0.244,0.209-0.457,0.285
			c-0.214,0.078-0.507,0.135-0.88,0.172c-0.374,0.039-0.834,0.057-1.383,0.057c-0.564,0-1.032-0.018-1.406-0.057
			c-0.373-0.037-0.666-0.094-0.88-0.172c-0.213-0.076-0.365-0.17-0.457-0.285c-0.091-0.113-0.137-0.248-0.137-0.4V27.984
			c0-0.99-0.072-1.768-0.218-2.331c-0.145-0.563-0.354-1.048-0.628-1.452c-0.274-0.403-0.629-0.716-1.063-0.937
			c-0.434-0.221-0.94-0.332-1.52-0.332c-0.731,0-1.471,0.268-2.217,0.801c-0.747,0.533-1.524,1.311-2.332,2.331v13.553
			c0,0.152-0.046,0.287-0.137,0.4c-0.092,0.115-0.248,0.209-0.469,0.285c-0.221,0.078-0.515,0.135-0.88,0.172
			c-0.366,0.039-0.831,0.057-1.395,0.057s-1.028-0.018-1.395-0.057c-0.365-0.037-0.659-0.094-0.88-0.172
			c-0.221-0.076-0.377-0.17-0.468-0.285c-0.092-0.113-0.138-0.248-0.138-0.4V19.23c0-0.152,0.038-0.286,0.114-0.4
			s0.213-0.209,0.411-0.285s0.454-0.134,0.767-0.172c0.312-0.038,0.704-0.057,1.177-0.057c0.487,0,0.892,0.019,1.211,0.057
			c0.32,0.038,0.567,0.096,0.743,0.172c0.175,0.076,0.301,0.171,0.377,0.285s0.114,0.248,0.114,0.4v2.354
			c1.128-1.22,2.274-2.134,3.44-2.743c1.165-0.609,2.381-0.914,3.646-0.914c1.387,0,2.556,0.229,3.509,0.686
			c0.952,0.457,1.722,1.078,2.309,1.862c0.586,0.785,1.009,1.703,1.269,2.755c0.259,1.051,0.389,2.316,0.389,3.794V39.617z"/>
		<path fill="#FE6379" d="M236.256,37.607c0,0.67-0.042,1.184-0.126,1.541c-0.083,0.359-0.193,0.611-0.331,0.756
			c-0.137,0.145-0.339,0.273-0.605,0.389c-0.267,0.113-0.579,0.213-0.938,0.297s-0.746,0.148-1.165,0.193
			c-0.42,0.047-0.843,0.068-1.269,0.068c-1.144,0-2.134-0.145-2.972-0.434c-0.839-0.289-1.531-0.734-2.08-1.338
			c-0.549-0.602-0.952-1.359-1.212-2.273c-0.259-0.914-0.388-1.996-0.388-3.246V23.116h-2.446c-0.289,0-0.511-0.18-0.663-0.537
			c-0.152-0.358-0.229-0.956-0.229-1.795c0-0.441,0.02-0.814,0.058-1.12c0.038-0.304,0.095-0.544,0.171-0.72
			c0.076-0.175,0.172-0.301,0.286-0.377s0.247-0.114,0.4-0.114h2.423v-4.549c0-0.152,0.041-0.289,0.125-0.411
			s0.236-0.225,0.457-0.309s0.519-0.145,0.892-0.183s0.834-0.058,1.383-0.058c0.563,0,1.032,0.02,1.406,0.058
			c0.373,0.038,0.666,0.099,0.88,0.183c0.213,0.084,0.365,0.187,0.457,0.309c0.091,0.122,0.137,0.259,0.137,0.411v4.549h4.435
			c0.152,0,0.286,0.038,0.4,0.114s0.209,0.202,0.285,0.377c0.076,0.176,0.134,0.416,0.172,0.72c0.037,0.306,0.057,0.679,0.057,1.12
			c0,0.839-0.076,1.437-0.229,1.795c-0.152,0.357-0.373,0.537-0.663,0.537h-4.457v9.577c0,1.111,0.176,1.945,0.526,2.502
			c0.35,0.557,0.975,0.834,1.874,0.834c0.305,0,0.579-0.027,0.822-0.08c0.244-0.053,0.461-0.113,0.652-0.184
			c0.189-0.068,0.35-0.129,0.479-0.182c0.129-0.053,0.247-0.08,0.354-0.08c0.091,0,0.179,0.027,0.263,0.08s0.148,0.16,0.194,0.32
			s0.088,0.377,0.126,0.65C236.237,36.83,236.256,37.18,236.256,37.607z"/>
	</g>
</g>
</svg>
